M48
; DRILL file KiCad 10.0.1 date 2026-07-28T10:46:15
; FORMAT={-:-/ absolute / metric / decimal}
; #@! TF.CreationDate,2026-07-28T10:46:15-07:00
; #@! TF.GenerationSoftware,Kicad,Pcbnew,10.0.1
; #@! TF.FileFunction,Plated,1,2,PTH
FMAT,2
METRIC
; #@! TA.AperFunction,Plated,PTH,ViaDrill
T1C0.300
; #@! TA.AperFunction,Plated,PTH,ComponentDrill
T2C0.800
; #@! TA.AperFunction,Plated,PTH,ComponentDrill
T3C0.920
; #@! TA.AperFunction,Plated,PTH,ComponentDrill
T4C1.000
; #@! TA.AperFunction,Plated,PTH,ComponentDrill
T5C2.300
%
G90
G05
T1
X121.691Y-110.697
X123.292Y-109.91
X124.231Y-111.281
X125.984Y-107.243
X126.848Y-111.992
X128.27Y-106.404
X129.337Y-112.45
X130.48Y-106.252
X131.826Y-43.616
X134.442Y-50.143
X134.442Y-104.169
X141.986Y-52.683
X142.215Y-120.654
X143.231Y-65.358
X143.789Y-118.8
X144.501Y-55.198
X144.602Y-120.171
X145.821Y-62.818
X147.066Y-57.713
X147.117Y-118.469
X149.631Y-60.303
X152.946Y-117.517
X170.79Y-117.834
X170.84Y-118.901
X174.193Y-99.597
X182.905Y-65.612
X183.744Y-62.564
X184.836Y-58.779
X184.963Y-60.083
X185.801Y-54.919
X186.258Y-49.585
X186.309Y-48.696
X187.122Y-53.395
X187.147Y-105.185
X187.156Y-41.981
X187.681Y-42.701
X188.087Y-67.06
X188.417Y-51.363
X188.976Y-50.118
X190.322Y-53.801
X193.497Y-50.626
X194.742Y-43.819
X195.199Y-54.182
X197.282Y-50.245
X198.831Y-112.196
X207.493Y-104.347
T2
X121.666Y-76.356
X121.666Y-91.596
X121.717Y-99.064
X121.717Y-114.304
X124.206Y-76.356
X124.206Y-91.596
X124.257Y-99.064
X124.257Y-114.304
X126.746Y-76.356
X126.746Y-91.596
X126.797Y-99.064
X126.797Y-114.304
X129.286Y-76.356
X129.286Y-91.596
X129.337Y-99.064
X129.337Y-114.304
X131.826Y-76.356
X131.826Y-91.596
X131.877Y-99.064
X131.877Y-114.304
X134.366Y-76.356
X134.366Y-91.596
X134.417Y-99.064
X134.417Y-114.304
X136.906Y-76.356
X136.906Y-91.596
X136.957Y-99.064
X136.957Y-114.304
X139.446Y-76.356
X139.446Y-91.596
X139.497Y-99.064
X139.497Y-114.304
X141.986Y-76.356
X141.986Y-91.596
X142.037Y-99.064
X142.037Y-114.304
X144.526Y-76.356
X144.526Y-91.596
X144.577Y-99.064
X144.577Y-114.304
X147.066Y-76.356
X147.066Y-91.596
X147.086Y-36.58
X147.117Y-99.064
X147.117Y-114.304
X149.606Y-76.356
X149.606Y-91.596
X149.657Y-99.064
X149.657Y-114.304
X152.146Y-76.356
X152.146Y-91.596
X152.197Y-99.064
X152.197Y-114.304
X154.026Y-45.013
X154.026Y-47.553
X154.026Y-50.093
X154.026Y-52.633
X154.026Y-55.173
X154.026Y-57.713
X154.026Y-60.253
X154.026Y-62.793
X154.026Y-65.333
X154.026Y-67.873
X154.686Y-76.356
X154.686Y-91.596
X154.737Y-99.064
X154.737Y-114.304
X155.234Y-41.609
X157.246Y-36.58
X157.277Y-99.064
X157.277Y-114.304
X157.785Y-77.652
X157.785Y-82.652
X159.817Y-99.064
X159.817Y-114.304
X160.234Y-41.609
X161.646Y-45.013
X161.646Y-47.553
X161.646Y-50.093
X161.646Y-52.633
X161.646Y-55.173
X161.646Y-57.713
X161.646Y-60.253
X161.646Y-62.793
X161.646Y-65.333
X161.646Y-67.873
X161.95Y-88.142
X161.95Y-93.142
X163.449Y-108.832
X163.449Y-113.832
X164.846Y-71.987
X165.354Y-88.497
X165.354Y-96.117
X167.386Y-71.987
X167.894Y-88.497
X167.894Y-96.117
X168.046Y-76.605
X168.046Y-84.225
X169.926Y-71.987
X170.434Y-88.497
X170.434Y-96.117
X170.586Y-76.605
X170.586Y-84.225
X172.466Y-71.987
X172.974Y-88.497
X172.974Y-96.117
X173.126Y-76.605
X173.126Y-84.225
X173.46Y-35.589
X175.006Y-71.987
X175.438Y-117.758
X175.438Y-120.258
X175.514Y-88.497
X175.514Y-96.117
X177.546Y-71.987
X178.054Y-88.497
X178.054Y-96.117
X178.423Y-40.263
X178.46Y-35.589
X180.086Y-71.987
X180.594Y-88.497
X180.594Y-96.117
X182.626Y-71.987
X183.134Y-88.497
X183.134Y-96.117
X183.323Y-40.263
X183.403Y-35.64
X185.166Y-71.987
X185.674Y-88.497
X185.674Y-96.117
X185.826Y-106.785
X185.826Y-114.405
X188.214Y-88.497
X188.214Y-96.117
X188.366Y-106.785
X188.366Y-114.405
X188.403Y-35.64
X190.906Y-106.785
X190.906Y-114.405
X192.507Y-35.705
X192.507Y-40.705
X193.196Y-60.253
X193.446Y-106.785
X193.446Y-114.405
X193.766Y-68.33
X195.986Y-106.785
X195.986Y-114.405
X196.266Y-68.33
X198.196Y-60.253
X198.526Y-106.785
X198.526Y-114.405
X201.066Y-106.785
X201.066Y-114.405
X201.27Y-60.445
X201.27Y-65.445
X201.346Y-46.602
X201.346Y-51.602
X203.606Y-106.785
X203.606Y-114.405
X204.749Y-67.695
X204.749Y-77.855
X206.146Y-106.785
X206.146Y-114.405
X208.686Y-106.785
X208.686Y-114.405
X212.166Y-109.061
X212.166Y-114.061
T3
X206.027Y-53.413
X206.027Y-55.913
X206.027Y-57.913
X206.027Y-60.413
T4
X162.149Y-36.529
X164.689Y-36.529
X172.842Y-45.935
X172.842Y-48.475
X172.842Y-51.015
X172.842Y-53.555
X172.842Y-56.095
X172.842Y-58.635
X172.842Y-61.175
X172.842Y-63.715
X175.382Y-45.935
X175.382Y-48.475
X175.382Y-51.015
X175.382Y-53.555
X175.382Y-56.095
X175.382Y-58.635
X175.382Y-61.175
X175.382Y-63.715
X181.356Y-80.42
X181.356Y-82.96
X183.896Y-80.42
X183.896Y-82.96
X186.436Y-80.42
X186.436Y-82.96
X188.976Y-80.42
X188.976Y-82.96
T5
X208.737Y-50.343
X208.737Y-63.483
M30
